<svg xmlns="http://www.w3.org/2000/svg" version="1.1" width="600px" height="600px" viewBox="0 0 200 200" style="overflow:hidden!important;"><g id="svga-group-wrapper"><g id="svga-group-backs-single"><path id="SvgjsPath10560" d="M0 0h200v200H0V0z" fill="#a6a826" stroke-width="none" opacity="1" stroke="none"></path><path id="SvgjsPath10561" d="M0 0v10.1L76.5 100 0 0zm0 34.1V50l76.5 58.3L0 34.1zm0 37.1v13.6l76.5 33.4L0 71.2zM38.3 0H21.1l67.2 108.3L38.3 0zm36.3 0H61l27.2 90L74.6 0zM0 108.3v9.9l76.5 9.9L0 108.3zM0 144v13.6l76.5-22.1L0 144zm0 35.7V200l88.3-64.5L0 179.7zM38.3 200h16.4l26.5-42.4L38.3 200zm85.2-100L200 10.1V0l-76.5 100zM200 50V34.1l-76.5 74.2L200 50zm0 34.8V71.2l-76.5 47L200 84.8zM178.9 0h-17.2l-50 108.3L178.9 0zM139 0h-13.6l-13.6 90L139 0zm61 118.2v-9.9L123.5 128l76.5-9.8zm0 39.4V144l-76.5-8.5 76.5 22.1zm0 42.4v-20.3l-88.3-44.2L200 200zm-54.7 0h16.4l-43-42.4 26.6 42.4zM111.7 0H88.3L100 100 111.7 0zM76.5 200h11.7l6.4-58.5L76.5 200zm35.2 0h11.7l-18.2-58.5 6.5 58.5zm-17 0h10.6l-5.3-42.4-5.3 42.4z" fill="#979913" stroke-width="none" opacity="1" stroke="none"></path></g><g id="svga-group-humanwrap-move" transform="matrix(1,0,0,1,0,0)"><g id="svga-group-humanwrap" transform="matrix(0.9499998000000001,0,0,0.9499998000000001,5.00001942779312,6.4082760602478)"><g id="svga-group-hair-back-move" transform="matrix(1,2.856368900253737e-18,-2.856368900253737e-18,1,0,0)"><g id="svga-group-hair-back" transform="matrix(0.9799998000000001,0,0,0.9998998000000001,0,0)"></g></g><g id="svga-group-humanbody-back"><path id="SvgjsPath10149" d="m170 180.3-27.3-6.9-18-9.9-1.5-28.2H76.8l-1.5 28.2-18 9.9-27.3 6.9-9.1 19.7-3 20h164.2l-3-20z" fill="#ebaa82" stroke-width="none" opacity="1"></path><path id="SvgjsPath10150" d="m76.8 135.3-1.5 28.2-18 9.9-27.3 6.9-9.1 19.7-3 20h14.6v-20l2.7-17.7 23.8-6.4 24.7-8.3 3.5-32.3z" fill="#cc7b48" stroke-width="none" opacity="1"></path></g><g id="svga-group-chinshadow-single"><path id="SvgjsPath10145" d="m121.5 149.1 2.2-3.8-.5-10H76.8l-.8 15.9 13.8 9.6h14.8z" fill="#bd6630" stroke-width="none" opacity="1"></path></g><g id="svga-group-humanbody-front"><path id="SvgjsPath10151" d="m92.8 168.3 2 7.9 6.9 4.6s-8.5-3-8.7-3.6c-.2-.6-.2-8.9-.2-8.9z" fill="#cc7b48" stroke-width="none" opacity="1"></path></g><g id="svga-group-clothes-single"><path id="SvgjsPath10370" d="m183.7 220-3.2-20.5-9.6-20.1-27.7-7-17.6-9.7-1-1.3.1 2.1.7 2.9-8.8 10.2-9.4 4.2H92.8l-9.4-4.2-8.8-10.2.7-2.9.1-2.1-1 1.3-17.6 9.7-27.8 7-9.5 20.1-3.2 20.5z" fill="#386e77" stroke-width="none" opacity="1"></path><path id="SvgjsPath10371" d="m72 164.1-1.1 3.8 7.9 11.6 13.9 6.6 9 1.2h-8.9l-14-6.5-8.7-12.5 1.5-4 .4-.2zM29.6 207l3.5-14.5 2.9.7 2.5 9.3-1.6-9.4-3.3-8.9 27.6-5.8 12-6.2 4.2-2.5-2.8-3.2.7-2.9.1-2.1-1 1.3-17.7 9.7-27.7 7-9.6 20.1-3.1 20.4h13.2l.1-13zm13.6 8.7-1.8-6.5.2 10.8h2.1l-.5-4.3zm84.8-51.6 1.1 3.8-7.9 11.6-13.9 6.6-9 1.2h8.9l14-6.5 8.7-12.5-1.5-4-.4-.2zm28.8 51.6 1.8-6.5-.2 10.8h-2.1l.5-4.3z" fill="#265e68" stroke-width="none" opacity="1"></path></g><g id="svga-group-head" transform="matrix(1,2.856368900253737e-18,-2.856368900253737e-18,1,0,0)"><g id="svga-group-ears-left-move" transform="matrix(1,0,0,1,1.5,0)"><g id="svga-group-ears-left"><path id="SvgjsPath10166" d="M60.9 93s-5.5-3-7.7-3.9c0 0-3.9 5.4-5.1 7.2 0 0 3.1 14.7 3.9 17.3l5 6.5 5.4-1.7 4.2-14.2L60.9 93z" fill="#ebaa82" stroke-width="none" opacity="1"></path><path id="SvgjsPath10167" d="M58.8 104.7c-.2-.4-6-10-6-10l-2.3 7.9 2.6-2.4 1.6 2.9s-.3 5-.2 5.5c0 .5 2.4 4.3 2.4 4.3l1.9-8.2z" fill="#cc7b48" stroke-width="none" opacity="1"></path><path id="SvgjsPath10168" d="m58.4 98-5.2-8.9c2.2.9 7.7 1.8 7.7 1.8l5.7 13.3-4.2 14.2-5.4 1.7 3.6-3.4L58.4 98z" fill="#dc9164" stroke-width="none" opacity="1"></path></g></g><g id="svga-group-ears-right-move" transform="matrix(1,0,0,1,-1.5,0)"><g id="svga-group-ears-right"><path id="SvgjsPath10169" d="M139.1 93s5.5-3 7.7-3.9c0 0 3.9 5.4 5.1 7.2 0 0-3.1 14.7-3.9 17.3l-5 6.5-5.4-1.7-4.2-14.2 5.7-11.2z" fill="#ebaa82" stroke-width="none" opacity="1"></path><path id="SvgjsPath10170" d="M141.2 104.7c.2-.4 6-10 6-10l2.3 7.9-2.6-2.4-1.6 2.9s.3 5 .2 5.5c0 .5-2.4 4.3-2.4 4.3l-1.9-8.2z" fill="#cc7b48" stroke-width="none" opacity="1"></path><path id="SvgjsPath10171" d="m141.6 98 5.2-8.9c-2.2.9-7.7 1.8-7.7 1.8l-5.7 13.3 4.2 14.2 5.4 1.7-3.6-3.4 2.2-18.7z" fill="#dc9164" stroke-width="none" opacity="1"></path></g></g><g id="svga-group-faceshape-wrap" transform="matrix(0.9799998000000001,0,0,0.9998998000000001,2.001019918446346,0.009689339694205046)"><g id="svga-group-faceshape-single"><path id="SvgjsPath10131" d="M138.1 60c-6.9-11.6-19.7-19.5-19.7-19.5-7.2-1.5-18.4-2.3-18.4-2.3s-11.1.8-18.4 2.3c0 0-12.8 7.9-19.7 19.5 0 0-5.1 14.5-5.3 24.8l4.9 33.9 14.2 24.8 16.9 11.7h14.9l16.9-11.7 14.2-24.8 4.9-33.9c-.3-10.3-5.4-24.8-5.4-24.8z" fill="#ebaa82" stroke-width="none" opacity="1"></path><path id="SvgjsPath10132" d="m92.7 152.7-14.6-12.3s-11.4-20.9-11.8-21.7c-.4-.9-5-34.3-5-34.3.2-4.8 4.5-21.5 5-22.2 2.1-3.2 16.5-18 16.5-18l17.1-4.1 18.5.4c-7.2-1.5-18.4-2.3-18.4-2.3s-11.1.8-18.4 2.3c0 0-12.8 7.9-19.7 19.5 0 0-5.1 14.5-5.3 24.8l4.9 33.9 14.2 24.8 16.9 11.7h14.9l16.9-11.7-18 10.4-13.7-1.2z" fill="#cc7b48" stroke-width="none" opacity="1"></path></g></g><g id="svga-group-mouth-single-move" transform="matrix(1,0,0,1,0,0)"><g id="svga-group-mouth-single"><path id="SvgjsPath10402" d="m91.05 134.5 3.1 2.2 5.6-.2 6.6.6 2.7-2-2.9 1-6.5-.5-5.5.2z" fill="#cc7b48" stroke-width="none" opacity="1" transform="translate(0 2)"></path><path id="SvgjsPath10403" d="m89.17 128.58-1.77 2.59 7.88-2.14 2.49 1.51 3.83.27 2.37-1.45 9.7 2.06-1.77-1.92-8.85-5.39-3.26.99-2.89-1.13z" fill="#da7c87" stroke-width="none" opacity="1" transform="translate(0 2)"></path><path id="SvgjsPath10404" d="m85.3 129.9 2.3 1.9 7.5-2.4 2.8 1.6 3.7.1 2.6-1.5 9.5 2.3 1.87-1.35-2.07.45-9.6-2.7-2.5 1.9-3.5-.1-2.7-2-7.8 2.7z" fill="#cb5f6c" stroke-width="none" opacity="1" transform="translate(0 2)"></path></g></g><g id="svga-group-eyes-left-move" transform="matrix(1,0,0,1,0,0)"><g id="svga-group-eyes-left"><g id="svga-group-eyesback-left"><path id="SvgjsPath10206" d="m90.8 100-2.5-7L77 89.8 69.6 92l5.6 8.3z" fill="#ffffff" stroke-width="none" opacity="1"></path></g><g id="svga-group-eyesiriswrapper-left" transform="matrix(1,0,0,1,0,0)"><g id="svga-group-eyesiriscontrol-left" transform="matrix(1,0,0,1,0,0)"><g id="svga-group-eyesiris-left"><path id="SvgjsPath10246" d="m75.9 95.33 1.82-4.94 5.19-.89 3.36 4.05-1.82 4.93-5.18.9z" fill="#000000" stroke-width="none" opacity="1"></path><path id="SvgjsPath10247" d="m82.7 90.07 2.98 3.58-1.61 4.37-4.59.79-2.98-3.58 1.61-4.37 4.59-.79m.42-1.13-5.78.99-2.03 5.5 3.75 4.51 5.78-.99 2.03-5.5-3.75-4.51z" fill="#4e60a3" stroke-width="none" opacity="1"></path><path id="SvgjsPath10248" d="m82.91 89.5-5.19.89-1.82 4.94 5.19-.87z" fill="#1e1e1e" stroke-width="none" opacity="1"></path><path id="SvgjsPath10249" d="m76.49 95.23 1.62-4.37 4.59-.79.42-1.13-5.78.99-2.03 5.5 1.19-.2z" fill="#a3acd1" stroke-width="none" opacity="1"></path><path id="SvgjsPath10250" d="m78.36 93.1.51-1.34 1.41-.24-.42 1.44z" fill="#2b2b2b" stroke-width="none" opacity="1"></path></g></g></g><g id="svga-group-eyesfront-left"><path id="SvgjsPath10214" d="M67.1 89.3v11.9l7.9 8.4h11.2l7.9-8.4V89.3l-7.9-8.4H75l-7.9 8.4zm2.5 2.7 7.4-2.2L88.3 93l2.5 7-15.6.3-5.6-8.3z" fill="#ebaa82" stroke-width="none" opacity="1"></path><path id="SvgjsPath10215" d="m91.2 101.3-2.1-8.9-6.5-2.6-6.2-1-8.4 3.7 9-2.5 11 3.3z" fill="#000000" stroke-width="none" opacity="1"></path></g></g></g><g id="svga-group-eyes-right-move" transform="matrix(1,0,0,1,0,0)"><g id="svga-group-eyes-right"><g id="svga-group-eyesback-right"><path id="SvgjsPath10207" d="m109.2 100 2.5-7 11.3-3.2 7.4 2.2-5.6 8.3z" fill="#ffffff" stroke-width="none" opacity="1"></path></g><g id="svga-group-eyesiriswrapper-right" transform="matrix(1,0,0,1,0,0)"><g id="svga-group-eyesiriscontrol-right" transform="matrix(1,0,0,1,0,0)"><g id="svga-group-eyesiris-right"><path id="SvgjsPath10251" d="m113.73 95.33 1.82-4.94 5.18-.89 3.37 4.05-1.82 4.93-5.19.9z" fill="#000000" stroke-width="none" opacity="1"></path><path id="SvgjsPath10252" d="m120.53 90.07 2.98 3.58-1.61 4.37-4.59.79-2.98-3.58 1.61-4.37 4.59-.79m.41-1.13-5.78.99-2.03 5.5 3.75 4.51 5.78-.99 2.03-5.5-3.75-4.51z" fill="#4e60a3" stroke-width="none" opacity="1"></path><path id="SvgjsPath10253" d="m120.73 89.5-5.18.89-1.82 4.94 5.18-.87z" fill="#1e1e1e" stroke-width="none" opacity="1"></path><path id="SvgjsPath10254" d="m114.32 95.23 1.61-4.37 4.6-.79.41-1.13-5.78.99-2.03 5.5 1.19-.2z" fill="#a3acd1" stroke-width="none" opacity="1"></path><path id="SvgjsPath10255" d="m116.18 93.1.51-1.34 1.42-.24-.42 1.44z" fill="#2b2b2b" stroke-width="none" opacity="1"></path></g></g></g><g id="svga-group-eyesfront-right"><path id="SvgjsPath10216" d="M125 80.8h-11.2l-7.9 8.4v11.9l7.9 8.4H125l7.9-8.4V89.3l-7.9-8.5zm-.2 19.5-15.6-.3 2.5-7 11.3-3.2 7.4 2.2-5.6 8.3z" fill="#ebaa82" stroke-width="none" opacity="1"></path><path id="SvgjsPath10219" d="m108.8 101.3 2.1-8.9 6.5-2.6 6.2-1 8.4 3.7-9-2.5-11 3.3z" fill="#000000" stroke-width="none" opacity="1"></path></g></g></g><g id="svga-group-facehighlight-single"></g><g id="svga-group-eyebrows-left-move" transform="matrix(1,0,0,1,0,0)"><g id="svga-group-eyebrows-left-rotate" transform="matrix(1,0,0,1,0,0)"><g id="svga-group-eyebrows-left"><path id="SvgjsPath10380" d="m94 85.8-.6 2.4-2.4 1.6-13.1-7.1-7.9-.2-5.6 4.1 4.8-6 8.5-1.9 10.2 3.5z" fill="#2a232b" stroke-width="none" opacity="1"></path><path id="SvgjsPath10381" d="m90.4 83.7.8.5-.5 3.2-.3-3.7zm-6.2-2.8 1.5 3.1-2.1-3.2.6.1zm3.7 1.3.4.2c.2 1.6.5 4.3.5 4.3L87.3 82l.6.2zm-6.3-2.1.8 1.7-2.2-2.2 1.4.5zM69 82.2c.1 0 0 0 0 0zm-1.8 1c.8-.4 1.5-.8 1.8-.9-.3.2-1.6 1.3-2.9 2.2l1.1-1.3zm6.7-3.6 1.8 2-2.3-1.9.5-.1zm-4.7 1 1.7-.4 2.6.9c.1 0-2.4-.3-4.3-.5z" fill="#3a353a" stroke-width="none" opacity="1"></path></g></g></g><g id="svga-group-eyebrows-right-move" transform="matrix(1,0,0,1,0,0)"><g id="svga-group-eyebrows-right-rotate" transform="matrix(1,0,0,1,0,0)"><g id="svga-group-eyebrows-right"><path id="SvgjsPath10382" d="m106 85.8.6 2.4 2.4 1.6 13.1-7.1 7.9-.2 5.6 4.1-4.8-6-8.5-1.9-10.2 3.5z" fill="#2a232b" stroke-width="none" opacity="1"></path><path id="SvgjsPath10383" d="m109.6 83.7-.8.5.5 3.2.3-3.7zm6.2-2.8-1.5 3.1 2.1-3.2-.6.1zm-3.7 1.3-.4.2c-.2 1.6-.5 4.3-.5 4.3l1.5-4.8-.6.3zm6.3-2.1-.8 1.7 2.2-2.2-1.4.5zm12.6 2.1c-.1 0 0 0 0 0zm1.8 1c-.8-.4-1.5-.8-1.8-.9.4.2 1.6 1.3 2.9 2.2l-1.1-1.3zm-6.7-3.6-1.8 2 2.3-1.9-.5-.1zm4.7 1-1.7-.4-2.6.9c-.1 0 2.3-.3 4.3-.5z" fill="#3a353a" stroke-width="none" opacity="1"></path></g></g></g><g id="svga-group-beardwrap" transform="matrix(0.9799998000000001,0,0,0.9998998000000001,0,0)"><g id="svga-group-beard-single-move" transform="matrix(1,0,0,1,0,0)"><g id="svga-group-beard-single"></g></g></g><g id="svga-group-mustache-single-move" transform="matrix(1,0,0,1,0,0)"><g id="svga-group-mustache-single"></g></g><g id="svga-group-nose-single-move" transform="matrix(1,0,0,1,0,0)"><g id="svga-group-nose-single"><path id="SvgjsPath10418" d="m96.12 99.91-.45 6.4-5.78 8.87 2.98 2.25 1.63-2.02 4.32 3.82h2.41l4.27-3.82 1.57 1.96 3.15-2.19-5.79-8.92-.56-6.46-3.82-1.63z" fill="#ebaa82" stroke-width="none" opacity="1" transform="translate(0 1)"></path><path id="SvgjsPath10419" d="m104.86 106.44-1.95-15.67 1.1 14.55-.86-.22 6.58 10.06-2.34 1.73-1.28-1.51.28-1.34-5.15 4.47h-2.4l-5.15-4.47.29 1.34-1.29 1.51-2.34-1.73 6.59-10.06-.86.22 1.33-22.81-2.19 23.93-5.82 8.83 3.81 2.79 1.44-2.01 4.19 3.91h2.4l4.2-3.91 1.43 2.01 3.81-2.79z" fill="#cc7b48" stroke-width="none" opacity="1" transform="translate(0 1)"></path><path id="SvgjsPath10420" d="m96.15 113.17 2.37 1.46 3.1.06 2.55-1.16-.3-1.76-3.59-.6-3.94.66z" fill="#f3b792" stroke-width="none" opacity="1" transform="translate(0 1)"></path></g></g><g id="svga-group-hair-front" transform="matrix(0.9799998000000001,0,0,0.9998998000000001,2.000119946067798,0.006444863969420567)"><path id="SvgjsPath10441" d="M143.01 63.98c-2.54-5.83-19.15-23.84-19.15-23.84L100 36.33l-23.86 3.8s-16.61 18-19.15 23.84l-.93 24.3 4.58 4.03h2.56l.73-24.9 17.21-16.84 7.32 8.24L100 60.55l11.54-1.75 7.32-8.24 17.21 16.84.73 24.9h2.56l4.58-4.03-.93-24.29z" fill="#1b141c" stroke-width="none" opacity="1"></path><path id="SvgjsPath10442" d="M123.86 40.14 100 36.33l-9.09 1.45-11.22 4.57s8.72 13.88 9.72 13.88c.99 0 12.49 1.78 13.48 1.59.99-.2 8.33-.99 8.33-.99l8.33-7.53 18.04 18.24.92 24.77h.86l4.58-4.03-.93-24.3c-2.55-5.84-19.16-23.84-19.16-23.84z" fill="#2a232b" stroke-width="none" opacity="1"></path></g><g id="svga-group-glasses-single-move" transform="matrix(1,0,0,1,0,0)"><g id="svga-group-glasses-single"><path id="SvgjsPath10294" d="m67.5 91.9-.1 5.4 2.2 6.9 3.5 3.6 6.7 1.9 6-.4 5.3-3.4 2.7-4.4.9-4-.2-5.9-8-3.6-9.7-1.4-7.8 1.8-1.5 3.5zm65 0 .1 5.4-2.2 6.9-3.5 3.6-6.7 1.9-6-.4-5.3-3.4-2.7-4.4-.9-4 .2-5.9 8-3.6 9.7-1.4 7.9 1.8 1.4 3.5z" fill="url(#SvgjsLinearGradient10295)" opacity="1"></path><path id="SvgjsPath10302" d="M95.4 91h8.7v1.4h-8.7V91zm-8.7-3.2-9.8-1.5-8.1 1.8-1.5 3.7-.1 5.5 2.3 6.9L73 108l6.8 1.9 6-.4 5.4-3.4 2.8-4.4 1-4.1-.3-6.1-8-3.7zm7 13.6-2.7 4.3-5.2 3.3-5.9.4-6.6-1.8-3.4-3.5-2.2-6.8.1-5.3 1.4-3.4 7.7-1.8 9.6 1.4 7.8 3.5.2 5.7-.8 4zm37.5-13.2-8.1-1.8-9.8 1.5-8.1 3.6-.3 6.1 1 4.1 2.8 4.4 5.4 3.4 6 .4 6.8-1.9 3.6-3.8 2.3-6.9-.1-5.5-1.5-3.6zm-1.1 15.8-3.4 3.5-6.6 1.8-5.9-.4-5.2-3.3-2.7-4.3-.9-3.9.2-5.7 7.8-3.5 9.6-1.4 7.7 1.8 1.4 3.4.1 5.3-2.1 6.7z" fill="#000000" stroke-width="none" opacity="1"></path><path id="SvgjsPath10303" d="m88.4 87.1-11.7-1.6-14.8 1.3v3.5l2.2 1.3 1.2 2.7 2.5.4.9-4.2 3-2.4s5-.6 5.2-.6 10.9 1.6 10.9 1.6l4.9 2.3 1.5 2.1.2 1.8L96 94l.6-1.7-1-2.3-7.2-2.9zm34.8-1.5-11.7 1.6-7.2 2.9-.9 2.4.6 1.7 1.6 1.3.2-1.8 1.5-2.1 4.9-2.3s10.7-1.6 10.9-1.6 5.1.6 5.1.6l3 2.4.9 4.2 2.5-.4 1.2-2.7 2.2-1.3V87l-14.8-1.4z" fill="#26120b" stroke-width="none" opacity="1"></path><path id="SvgjsPath10304" d="m95.7 90-7.2-3-11.7-1.5L62 86.9v3.6l2.1 1.3 1.2 2.7 2.5.4h.1v-.1l.9-4.2 2.9-2.4 4-.5 1-.1c.3 0 .6.1 1 .1l2 .3c2.7.4 5.3.7 8 1.2l4.9 2.3 1.5 2.1.2 1.8v.2l.1-.1 1.6-1.3.6-1.7-.9-2.5zm.1 4.1-1.4 1.2-.2-1.7-1.5-2.1-4.9-2.3-8-1.2-2-.3c-.3 0-.7-.1-1-.1l-1 .1-4 .5-3 2.4-.9 4.1-2.4-.4-1.2-2.6-2.3-1.3v-3.5l14.8-1.2 11.7 1.6 7.1 2.8.9 2.3-.7 1.7zm42.3-3.6v-3.6l-14.8-1.4-11.7 1.5-7.2 2.9h-.1v.1l-.9 2.4.6 1.7 1.6 1.3.1.1v-.2l.2-1.8 1.5-2.1 4.9-2.3c2.7-.4 5.3-.8 8-1.2l2-.3c.3 0 .7-.1 1-.1l1 .1 4 .5 2.9 2.4.9 4.2v.1h.1l2.5-.4 1.2-2.7 2.2-1.2zm-.1-.1-2.1 1.3-1.2 2.6-2.4.4-.9-4.1-3-2.4-4-.5-1-.1c-.4 0-.7.1-1 .1l-2 .3-8 1.2-4.9 2.3-1.5 2.1-.2 1.7-1.4-1.2-.6-1.7.9-2.3 7.1-2.8 11.7-1.6 14.8 1.2-.3 3.5z" fill="#000000" stroke-width="none" opacity="1"></path></g></g></g></g></g><rect id="svga-credit-rect" width="200" height="15" x="0" y="185" fill="#ecf0f1" opacity="0.5" style="display: none;"></rect><text id="svga-credit-text" font-family="Avenir Next, Roboto, Helvetica, Arial, sans-serif" font-size="10px" text-anchor="start" font-weight="400" size="10px" anchor="start" weight="400" fill="#333333" x="33.3125" y="182.609375" style="display: none;"><tspan id="SvgjsTspan10130" dy="13" x="33.3125">Created on AvatarMaker.com</tspan></text></g><defs id="SvgjsDefs10077"><linearGradient id="SvgjsLinearGradient10295" x1="100" y1="86.57" x2="100" y2="109.62" gradientUnits="userSpaceOnUse" class="svga-on-canvas-glasses-gradient-single-0-null"><stop id="SvgjsStop10296" stop-opacity="1" stop-color="#3d2d1c" offset="0.0208" ></stop><stop id="SvgjsStop10297" stop-opacity="0.6291" stop-color="#402e1c" offset="0.3825" ></stop><stop id="SvgjsStop10298" stop-opacity="0.3897" stop-color="#48321d" offset="0.6159" ></stop><stop id="SvgjsStop10299" stop-opacity="0.1881" stop-color="#57381f" offset="0.8124" ></stop><stop id="SvgjsStop10300" stop-opacity="7.593334e-03" stop-color="#6c4221" offset="0.9884" ></stop><stop id="SvgjsStop10301" stop-opacity="0" stop-color="#6d4221" offset="0.9958" ></stop></linearGradient></defs></svg>